<?xml version="1.0" encoding="UTF-8"?>
<svg version="1.1" xmlns="http://www.w3.org/2000/svg" width="1200" height="1200">
<path d="M0 0 C4.24949155 1.51482813 7.92359489 3.67773825 11.6875 6.125 C12.30399414 6.52460938 12.92048828 6.92421875 13.55566406 7.3359375 C24.28086614 14.38568031 33.99404558 22.87067634 43 32 C43.76441406 31.3709375 44.52882813 30.741875 45.31640625 30.09375 C57.51832479 20.25847474 71.65369805 10.52790464 88 11 C88.495 11.99 88.495 11.99 89 13 C88.24976563 13.268125 87.49953125 13.53625 86.7265625 13.8125 C65.34116507 22.00035997 53.96103984 40.43165986 44.8984375 60.4765625 C41.73036131 67.79123382 39.34942878 75.39105452 37 83 C40.01998449 81.59203426 42.5740608 79.91638511 45.25 77.9375 C60.98297701 66.88064939 77.70880605 58.94589435 97 57 C95.39356882 60.21286235 91.99838043 60.82220181 88.8125 62.125 C76.29182666 67.44870667 65.17176615 73.82546583 55 83 C54.13503906 83.77085937 53.27007813 84.54171875 52.37890625 85.3359375 C40.89818602 96.13515379 31.40968603 111.93920927 30.90234375 128.11328125 C30.91394531 129.16902344 30.92554688 130.22476563 30.9375 131.3125 C30.94652344 132.38113281 30.95554687 133.44976563 30.96484375 134.55078125 C30.97644531 135.35902344 30.98804688 136.16726563 31 137 C31.66 137 32.32 137 33 137 C33.0825 135.80375 33.165 134.6075 33.25 133.375 C33.79121379 129.09102603 35.11519176 126.2969237 38 123 C39.32 123 40.64 123 42 123 C42.33 124.32 42.66 125.64 43 127 C48.7288756 123.93853738 53.67665828 120.29223625 58.75 116.25 C64.77808285 111.4937506 70.83777515 106.85787432 77.12890625 102.453125 C79.11775839 101.12457296 79.11775839 101.12457296 80 99 C78.96875 98.9175 77.9375 98.835 76.875 98.75 C71.64327768 97.73740858 68.52832045 95.77482375 65.0625 91.75 C63.52607117 87.77336069 64.17943501 85.17120537 65 81 C65.33 80.34 65.66 79.68 66 79 C71.00933477 79.4770795 74.06978099 80.85582479 78 84 C81.60585951 88.50732439 81.62966962 91.83351327 83 98 C88.61 93.71 94.22 89.42 100 85 C99.34 83.68 98.68 82.36 98 81 C96.91800339 74.30671864 98.65787799 69.74427221 102 64 C102.66 64 103.32 64 104 64 C106.31 68.29 108.62 72.58 111 77 C112.423125 75.90300781 113.84625 74.80601562 115.3125 73.67578125 C117.20819014 72.22116753 119.1040315 70.76675087 121 69.3125 C121.93457031 68.59126953 122.86914062 67.87003906 123.83203125 67.12695312 C129.07377559 63.11316987 134.33275048 59.38832017 140 56 C140.80824219 56.95261719 141.61648438 57.90523438 142.44921875 58.88671875 C143.52853405 60.15374106 144.60796741 61.42066281 145.6875 62.6875 C146.48317383 63.62625977 146.48317383 63.62625977 147.29492188 64.58398438 C153.30714582 72.44769876 153.30714582 72.44769876 162 76.0625 C166.36584034 76.7706497 168.96247646 77.58278602 172 81 C173.3125 84.25 173.3125 84.25 174 87 C173.34 87.66 172.68 88.32 172 89 C211.59885739 127.50441661 267.5767651 149.59239659 321 160 C322.91814173 160.38324983 324.83612234 160.76730735 326.75390625 161.15234375 C328.16924566 161.43502192 329.58459999 161.71762544 331 162 C330.67 162.66 330.34 163.32 330 164 C300.25903615 169.89067676 264.73534297 164.34861767 237 153 C237.7659135 180.3424892 238.87621036 207.67022897 240 235 C240.91749023 235.04970947 241.83498047 235.09941895 242.78027344 235.15063477 C251.68036713 235.68121291 260.42636854 236.6188573 269.25 237.9375 C270.425625 238.10701172 271.60125 238.27652344 272.8125 238.45117188 C279.90446628 239.48738695 286.95850888 240.66340411 294 242 C294.33 242.99 294.66 243.98 295 245 C248.77652254 246.324909 202.54197224 246.15396542 156.30421984 246.12856841 C148.63062453 246.12479665 140.95704211 246.12615853 133.28344727 246.13037109 C39.01984675 246.18094311 39.01984675 246.18094311 -1 245 C-0.67 244.01 -0.34 243.02 0 242 C12.375 240.02 12.375 240.02 25 238 C25.67028168 204.65348655 22.56137633 149.97436762 0.2578125 122.328125 C-7.3338681 114.50002528 -17.27142204 108.36476776 -28 106 C-28 105.34 -28 104.68 -28 104 C-14.70232295 104.35162127 -2.01886262 109.71727871 10 115 C10.1451001 114.35264893 10.2902002 113.70529785 10.43969727 113.03833008 C20.74280094 67.51924211 20.74280094 67.51924211 33.265625 49.79296875 C35.39544511 47.009695 35.39544511 47.009695 34.5625 43.25 C31.65254934 34.36788317 26.93773934 27.13334749 21 20 C20.36191406 19.14341797 20.36191406 19.14341797 19.7109375 18.26953125 C15.80371803 13.22370488 10.81804386 9.55495147 5.76147461 5.73095703 C1.09430592 2.18861183 1.09430592 2.18861183 0 0 Z M127.09765625 85.0625 C126.30480225 85.52108398 125.51194824 85.97966797 124.69506836 86.45214844 C123.39194702 87.21833496 123.39194702 87.21833496 122.0625 88 C120.14863262 89.10971158 118.23455948 90.21906835 116.3203125 91.328125 C115.29583008 91.92431641 114.27134766 92.52050781 113.21582031 93.13476562 C108.2218199 96.03137686 103.20611779 98.88974088 98.19100952 101.74960327 C95.83334097 103.09467946 93.47698891 104.44205325 91.12059021 105.78935242 C86.15144229 108.63040313 81.18032931 111.46795681 76.20594788 114.29983521 C73.6644208 115.74686643 71.12358331 117.19510613 68.58279419 118.64343262 C67.37844555 119.32950045 66.17376378 120.0149839 64.96871948 120.6998291 C61.30276891 122.78336751 57.64869675 124.8864199 54 127 C53.16766846 127.46857422 52.33533691 127.93714844 51.4777832 128.41992188 C50.75421631 128.84208984 50.03064941 129.26425781 49.28515625 129.69921875 C48.67293213 130.04944092 48.06070801 130.39966309 47.42993164 130.76049805 C44.66631248 133.15607504 44.61628613 136.52638728 44 140 C42.625 142.0625 42.625 142.0625 41 143 C37.62919544 142.78252874 35.55390936 141.09785412 33 139 C32.01 139.66 31.02 140.32 30 141 C32.78793258 173.42805788 39.56316112 207.34197545 65 230 C65.58394531 230.56203125 66.16789063 231.1240625 66.76953125 231.703125 C69.93774887 233.54524103 72.88194042 233.36109834 76.4375 233.25 C77.51825806 233.22792229 77.51825806 233.22792229 78.62084961 233.20539856 C82.47664242 233.1155731 86.32420755 232.99886563 90.17407227 232.76342773 C106.87218941 231.7511255 123.58221098 231.81257312 140.30419922 231.81469727 C143.73947494 231.81477783 147.17461532 231.80793275 150.60986328 231.79418945 C170.85330115 231.7143817 190.9927074 232.04605513 211.20153809 233.29804993 C212.30475151 233.36624782 212.30475151 233.36624782 213.43025208 233.43582344 C215.39975882 233.55971464 217.36890417 233.68931468 219.3380127 233.81938171 C223.23685516 234.01168228 227.09719925 234.02973977 231 234 C231.39788363 226.42688422 231.78938719 218.85345926 232.17345428 211.27963066 C232.35211202 207.76015319 232.53270561 204.24080074 232.71826172 200.72167969 C233.59104768 184.14043783 234.23724749 167.60952089 234 151 C233.41935791 150.7449469 232.83871582 150.4898938 232.24047852 150.22711182 C199.76458391 135.94399648 170.7087946 117.62178065 144.88671875 93.125 C143.86650635 92.15771973 143.86650635 92.15771973 142.82568359 91.17089844 C141.50503772 89.91079151 140.19128 88.64341731 138.88525391 87.36816406 C138.29019043 86.79807617 137.69512695 86.22798828 137.08203125 85.640625 C136.55843018 85.13047852 136.0348291 84.62033203 135.49536133 84.09472656 C132.39719328 81.82661464 130.02046794 83.35406455 127.09765625 85.0625 Z " fill="#448825" transform="translate(474,447)"/>
<path d="M0 0 C4.24949155 1.51482813 7.92359489 3.67773825 11.6875 6.125 C12.30399414 6.52460938 12.92048828 6.92421875 13.55566406 7.3359375 C24.28086614 14.38568031 33.99404558 22.87067634 43 32 C43.76441406 31.3709375 44.52882813 30.741875 45.31640625 30.09375 C57.51832479 20.25847474 71.65369805 10.52790464 88 11 C88.495 11.99 88.495 11.99 89 13 C88.24976563 13.268125 87.49953125 13.53625 86.7265625 13.8125 C65.34116507 22.00035997 53.96103984 40.43165986 44.8984375 60.4765625 C41.73036131 67.79123382 39.34942878 75.39105452 37 83 C40.01998449 81.59203426 42.5740608 79.91638511 45.25 77.9375 C60.98297701 66.88064939 77.70880605 58.94589435 97 57 C95.39356882 60.21286235 91.99838043 60.82220181 88.8125 62.125 C76.29182666 67.44870667 65.17176615 73.82546583 55 83 C54.13503906 83.77085937 53.27007813 84.54171875 52.37890625 85.3359375 C40.89818602 96.13515379 31.40968603 111.93920927 30.90234375 128.11328125 C30.91394531 129.16902344 30.92554688 130.22476563 30.9375 131.3125 C30.94652344 132.38113281 30.95554687 133.44976563 30.96484375 134.55078125 C30.97644531 135.35902344 30.98804688 136.16726563 31 137 C31.99 136.67 32.98 136.34 34 136 C33.625 137.9375 33.625 137.9375 33 140 C32.34 140.33 31.68 140.66 31 141 C33.67706277 172.13846692 39.89067806 207.51953112 65 229 C66.95938799 230.41439265 68.95799955 231.70507288 71 233 C71 233.33 71 233.66 71 234 C66.05696443 234.57693043 61.11313283 235.14628467 56.16845703 235.70898438 C54.49049008 235.90097291 52.81274824 236.09494059 51.13525391 236.29101562 C42.39157367 237.31171921 33.82008455 238.2874162 25 238 C25.02094727 237.28271729 25.04189453 236.56543457 25.06347656 235.82641602 C25.88298767 203.18860821 21.96261584 149.23217781 0.2578125 122.328125 C-7.3338681 114.50002528 -17.27142204 108.36476776 -28 106 C-28 105.34 -28 104.68 -28 104 C-14.70232295 104.35162127 -2.01886262 109.71727871 10 115 C10.1451001 114.35264893 10.2902002 113.70529785 10.43969727 113.03833008 C20.74280094 67.51924211 20.74280094 67.51924211 33.265625 49.79296875 C35.39544511 47.009695 35.39544511 47.009695 34.5625 43.25 C31.65254934 34.36788317 26.93773934 27.13334749 21 20 C20.36191406 19.14341797 20.36191406 19.14341797 19.7109375 18.26953125 C15.80371803 13.22370488 10.81804386 9.55495147 5.76147461 5.73095703 C1.09430592 2.18861183 1.09430592 2.18861183 0 0 Z " fill="#321F17" transform="translate(474,447)"/>
<path d="M0 0 C3.43527572 0.00008057 6.8704161 -0.00676452 10.30566406 -0.02050781 C41.30393318 -0.14236917 72.22175851 0.75150241 103.07080078 3.99780273 C103.87549805 4.07945679 104.68019531 4.16111084 105.50927734 4.24523926 C121.68300949 5.8936431 137.69490172 8.32295109 153.69580078 11.18530273 C154.02580078 12.17530273 154.35580078 13.16530273 154.69580078 14.18530273 C108.47232332 15.51021174 62.23777302 15.33926815 16.00002062 15.31387115 C8.32642531 15.31009938 0.65284289 15.31146127 -7.02075195 15.31567383 C-101.28435247 15.36624585 -101.28435247 15.36624585 -141.30419922 14.18530273 C-140.97419922 13.19530273 -140.64419922 12.20530273 -140.30419922 11.18530273 C-123.37648601 7.94008062 -106.46115347 5.785202 -89.30419922 4.18530273 C-88.25187103 4.08702179 -88.25187103 4.08702179 -87.17828369 3.98675537 C-81.90902926 3.49654789 -76.63831829 3.02432537 -71.36669922 2.56030273 C-70.31681824 2.46650833 -70.31681824 2.46650833 -69.24572754 2.37081909 C-64.26830395 1.92956177 -59.28886933 1.53543367 -54.30419922 1.18530273 C-53.58810486 1.13477753 -52.8720105 1.08425232 -52.13421631 1.03219604 C-34.78079958 -0.1265312 -17.38312506 -0.00209316 0 0 Z " fill="#0070BB" transform="translate(614.30419921875,677.814697265625)"/>
<path d="M0 0 C0.91075287 0.00060425 1.82150574 0.0012085 2.75985718 0.00183105 C33.48749141 0.05672753 63.86721825 2.49083139 94 8.75 C94.97702881 8.94762939 95.95405762 9.14525879 96.96069336 9.34887695 C97.8450708 9.54441162 98.72944824 9.73994629 99.640625 9.94140625 C100.41438477 10.10970947 101.18814453 10.2780127 101.98535156 10.45141602 C102.85885254 10.81577759 102.85885254 10.81577759 103.75 11.1875 C104.08 12.1775 104.41 13.1675 104.75 14.1875 C99.66844669 15.0237641 94.74298043 15.33023594 89.59033203 15.31448364 C88.40045527 15.31682363 88.40045527 15.31682363 87.1865406 15.31921089 C84.54361202 15.32318137 81.90074146 15.32004661 79.2578125 15.31689453 C77.35683153 15.31825032 75.45585082 15.32003126 73.55487061 15.32220459 C68.40208032 15.32675772 63.2493101 15.32499807 58.09651947 15.3218255 C52.6999252 15.31929096 47.30333262 15.3216425 41.90673828 15.32321167 C32.84472343 15.32503016 23.78271674 15.32263544 14.72070312 15.31787109 C4.24892333 15.31242909 -6.22283699 15.31419197 -16.69461632 15.3196975 C-25.69097243 15.32423773 -34.68732269 15.32487471 -43.68367958 15.32225883 C-49.0544021 15.32070108 -54.42511547 15.32048857 -59.7958374 15.32379532 C-64.84537415 15.32668723 -69.89488582 15.32467403 -74.94441986 15.31890106 C-76.79592599 15.31758056 -78.64743423 15.31795554 -80.49893951 15.32016373 C-83.02943202 15.32290311 -85.55984459 15.31946004 -88.09033203 15.31448364 C-88.82001127 15.31671436 -89.54969051 15.31894509 -90.30148125 15.32124341 C-94.72736827 15.30440417 -98.89637681 14.90396966 -103.25 14.1875 C-103.25 13.5275 -103.25 12.8675 -103.25 12.1875 C-96.06711153 9.5782987 -88.95829709 8.00361317 -81.4375 6.6875 C-80.2220752 6.47319336 -79.00665039 6.25888672 -77.75439453 6.03808594 C-51.98695321 1.64466596 -26.10492137 -0.03236928 0 0 Z " fill="#0071BC" transform="translate(622.25,696.8125)"/>
<path d="M0 0 C2.81208175 2.26338287 3.76376149 3.76863291 4.44140625 7.30078125 C4.79168547 12.21214304 4.30987368 15.28441703 1.125 19.125 C-0.4921875 20.8203125 -0.4921875 20.8203125 -2 22 C-2.66 22 -3.32 22 -4 22 C-4 22.66 -4 23.32 -4 24 C-3.401875 24.226875 -2.80375 24.45375 -2.1875 24.6875 C2.29754599 27.3785276 3.64158622 32.41945174 5.1875 37.1875 C5.53167969 38.23292969 5.87585938 39.27835938 6.23046875 40.35546875 C7 43 7 43 7 45 C8.65 45.33 10.3 45.66 12 46 C12.52013672 44.30617188 12.52013672 44.30617188 13.05078125 42.578125 C14.60538148 37.90975465 16.45140132 33.39277846 18.35546875 28.859375 C18.66332306 28.12489136 18.97117737 27.39040771 19.2883606 26.63366699 C20.5807857 23.55631046 21.87671169 20.48053158 23.18334961 17.40917969 C24.14448947 15.14582732 25.09447797 12.87805156 26.04296875 10.609375 C26.3397905 9.91970642 26.63661224 9.23003784 26.94242859 8.51947021 C28.46877077 4.84597888 29.23283838 1.97265964 29 -2 C30 -3 30 -3 31.84765625 -3.09765625 C33.8984375 -3.06510417 35.94921875 -3.03255208 38 -3 C41.81674404 5.45205334 45.2872681 14.02228238 48.71044922 22.63964844 C49.40692655 24.38852951 50.10716158 26.13591851 50.81103516 27.88183594 C51.83547061 30.42319646 52.84863494 32.96879167 53.859375 35.515625 C54.17493347 36.2927887 54.49049194 37.06995239 54.81561279 37.8706665 C56.32484564 41.71128279 57.41909657 44.7944389 57 49 C54.03 49 51.06 49 48 49 C46.9936345 46.56495491 45.99473587 44.12729136 45 41.6875 C44.71382813 40.99720703 44.42765625 40.30691406 44.1328125 39.59570312 C42.91089256 36.58454326 42 34.28113016 42 31 C36.06 31.33 30.12 31.66 24 32 C22.06742362 37.21946973 22.06742362 37.21946973 20.14086914 42.44116211 C18.11111111 47.88888889 18.11111111 47.88888889 17 49 C14.55435786 49.292061 12.14187156 49.51530368 9.6875 49.6875 C9.01009766 49.74744141 8.33269531 49.80738281 7.63476562 49.86914062 C3.79029464 50.14347726 1.20823741 50.19332706 -2 48 C-2.95385742 45.96875 -2.95385742 45.96875 -3.60546875 43.5 C-3.86779297 42.613125 -4.13011719 41.72625 -4.40039062 40.8125 C-4.92373614 38.9424813 -5.4290874 37.06733014 -5.91601562 35.1875 C-6.727181 32.51084879 -7.44979214 30.33240202 -9 28 C-11.9675337 26.58498284 -14.73291351 26.1530292 -18 26 C-18.33 24.68 -18.66 23.36 -19 22 C-17.7625 21.731875 -16.525 21.46375 -15.25 21.1875 C-10.58959586 20.032828 -10.58959586 20.032828 -7 17 C-5.96767371 13.41362198 -5.6453014 10.22532245 -6.6875 6.625 C-10.27567527 2.18249728 -14.20969348 2.72378832 -20 2 C-20 17.51 -20 33.02 -20 49 C-22.97 49 -25.94 49 -29 49 C-29.33 33.82 -29.66 18.64 -30 3 C-31.32 2.67 -32.64 2.34 -34 2 C-34 1.01 -34 0.02 -34 -1 C-23.38683868 -3.79688016 -9.99789519 -5.51453412 0 0 Z M32 8 C30.99600476 10.62353518 29.99665555 13.24867795 29 15.875 C28.71382813 16.62136719 28.42765625 17.36773438 28.1328125 18.13671875 C26.56663352 21.95985011 26.56663352 21.95985011 26 26 C30.29 26 34.58 26 39 26 C38.14491137 21.72455684 37.02456846 18.21621223 35.4375 14.1875 C34.75494141 12.44533203 34.75494141 12.44533203 34.05859375 10.66796875 C33.70925781 9.78753906 33.35992187 8.90710938 33 8 C32.67 8 32.34 8 32 8 Z " fill="#448825" transform="translate(421,768)"/>
<path d="M0 0 C0.97970764 -0.00067474 1.95941528 -0.00134949 2.96881104 -0.00204468 C27.93454688 0.0252322 51.99755207 2.45248546 75.99609375 9.71875 C76.73013428 9.93982422 77.4641748 10.16089844 78.22045898 10.38867188 C79.9375 11.25 79.9375 11.25 80.9375 14.25 C56.29741137 15.09647454 31.68277529 15.41086925 7.02880859 15.38037109 C2.37099773 15.37467459 -2.2867559 15.37806146 -6.94456482 15.38382339 C-30.66738648 15.40847823 -54.35335763 15.06449323 -78.0625 14.25 C-78.0625 13.26 -78.0625 12.27 -78.0625 11.25 C-62.90767313 6.46929752 -47.83005358 3.2544307 -32.0625 1.25 C-30.85170776 1.09313721 -30.85170776 1.09313721 -29.61645508 0.93310547 C-19.79219317 -0.14826943 -9.8709042 0.00610094 0 0 Z " fill="#0071BC" transform="translate(627.0625,715.75)"/>
<path d="M0 0 C5.14280575 4.39281325 7.17408641 9.10462568 7.83984375 15.78515625 C8.07767971 24.68022105 7.33369445 32.14630696 1.0625 38.99609375 C-8.54474081 47.47448377 -19.80789124 47.66461045 -31.92578125 46.92138672 C-37.35806619 46.51693381 -37.35806619 46.51693381 -38.5 45.375 C-38.62209924 43.96382298 -38.67770872 42.54679541 -38.70532227 41.13061523 C-38.72526749 40.22975693 -38.74521271 39.32889862 -38.76576233 38.40074158 C-38.78247482 37.42158279 -38.79918732 36.44242401 -38.81640625 35.43359375 C-38.8475779 33.93748314 -38.8475779 33.93748314 -38.87937927 32.41114807 C-38.94498637 29.21167157 -39.00381134 26.01211018 -39.0625 22.8125 C-39.10567462 20.64907961 -39.14928855 18.48566794 -39.19335938 16.32226562 C-39.30067903 11.00660126 -39.40242427 5.69085166 -39.5 0.375 C-40.82 0.045 -42.14 -0.285 -43.5 -0.625 C-43.5 -1.615 -43.5 -2.605 -43.5 -3.625 C-29.40084376 -6.56560614 -12.6329742 -8.37545251 0 0 Z M-29.5 0.375 C-29.601137 3.39308063 -29.63968909 6.38780513 -29.6328125 9.40625 C-29.63376923 10.31250122 -29.63472595 11.21875244 -29.63571167 12.15246582 C-29.63639353 14.07251047 -29.63453882 15.99255741 -29.63037109 17.91259766 C-29.62502292 20.86235704 -29.63031588 23.81196414 -29.63671875 26.76171875 C-29.63605797 28.62239617 -29.63477681 30.4830735 -29.6328125 32.34375 C-29.63483673 33.23227661 -29.63686096 34.12080322 -29.63894653 35.03625488 C-30.025828 39.02328858 -30.025828 39.02328858 -28.5 42.375 C-21.37802325 43.13851596 -15.36233956 42.70513718 -9.5 38.375 C-5.25049511 34.4181906 -2.8013189 30.11139606 -2.1640625 24.32421875 C-2.07122949 16.57266209 -2.47952835 10.67084642 -7.92578125 4.8515625 C-12.65669256 0.62185885 -16.98475667 -0.905632 -23.25 -0.8125 C-24.21421875 -0.80605469 -25.1784375 -0.79960938 -26.171875 -0.79296875 C-28.46000587 -0.88312405 -28.46000587 -0.88312405 -29.5 0.375 Z " fill="#448825" transform="translate(524.5,770.625)"/>
<path d="M0 0 C4.70340885 3.74562377 7.88195224 7.44757021 8.8359375 13.5234375 C9.70360926 24.06729692 9.49377613 32.85849863 2.5234375 41.3359375 C-5.93627887 48.22175315 -13.43187672 49.2423399 -24.1640625 48.5234375 C-29.84649486 47.29284705 -34.95448599 44.71836569 -38.3203125 39.8515625 C-43.24904304 31.61354146 -43.49894773 21.18804833 -41.6328125 11.87109375 C-38.91186879 4.16668249 -34.69347867 0.95529041 -27.6015625 -2.4609375 C-18.43551646 -6.28012335 -8.20673353 -5.59954021 0 0 Z M-28.1640625 4.5234375 C-33.13326767 11.43572931 -33.85228194 19.41556178 -32.5390625 27.6484375 C-31.13459408 33.63392374 -28.51890995 38.37043412 -23.9765625 42.5234375 C-18.40101269 44.50585521 -13.19133932 44.42444942 -7.7890625 42.0234375 C-2.57908307 37.06155233 -1.00246729 32.9301511 -0.7421875 25.65087891 C-0.68054634 17.25805009 -1.17344089 10.44911021 -7.1640625 4.0859375 C-11.35964103 0.50221417 -14.57136196 0.15905892 -19.8828125 0.25390625 C-23.5814114 0.69089824 -25.46003881 2.00806663 -28.1640625 4.5234375 Z " fill="#448825" transform="translate(829.1640625,769.4765625)"/>
<path d="M0 0 C2.08545588 3.12818381 2.37100815 5.50923634 2.5 9.25 C1.49250962 14.28745192 -0.60885944 16.94253052 -4.5 20.25 C-5.16 20.25 -5.82 20.25 -6.5 20.25 C-6.5 20.91 -6.5 21.57 -6.5 22.25 C-5.88125 22.33378906 -5.2625 22.41757812 -4.625 22.50390625 C-2.5 23.25 -2.5 23.25 -1.375 24.96484375 C-1.08625 25.69832031 -0.7975 26.43179688 -0.5 27.1875 C-0.00693359 28.3940625 -0.00693359 28.3940625 0.49609375 29.625 C1.18059795 31.41483199 1.8600803 33.20659068 2.53515625 35 C2.87417969 35.886875 3.21320312 36.77375 3.5625 37.6875 C3.86285156 38.51121094 4.16320312 39.33492187 4.47265625 40.18359375 C5.44750047 42.57474602 5.44750047 42.57474602 8.5 44.25 C8.5 45.24 8.5 46.23 8.5 47.25 C7.11135566 47.55556226 5.71318736 47.81800808 4.3125 48.0625 C3.53519531 48.21332031 2.75789062 48.36414063 1.95703125 48.51953125 C-0.5 48.25 -0.5 48.25 -3.13671875 46.23828125 C-5.79302408 42.87948195 -6.99964417 39.682621 -8.125 35.625 C-9.58543483 29.67950335 -9.58543483 29.67950335 -13.5 25.25 C-17.11023099 24.51958147 -17.11023099 24.51958147 -20.5 24.25 C-20.5 22.93 -20.5 21.61 -20.5 20.25 C-19.88511719 20.07984375 -19.27023437 19.9096875 -18.63671875 19.734375 C-13.69412171 18.28070137 -13.69412171 18.28070137 -9.4375 15.5 C-8.08037374 12.24289697 -8.12608907 9.73983538 -8.5 6.25 C-10.26015131 3.0649643 -10.99890916 2.41703028 -14.5 1.25 C-16.81 1.25 -19.12 1.25 -21.5 1.25 C-21.83 16.43 -22.16 31.61 -22.5 47.25 C-25.47 47.25 -28.44 47.25 -31.5 47.25 C-31.83 32.07 -32.16 16.89 -32.5 1.25 C-33.82 0.92 -35.14 0.59 -36.5 0.25 C-36.5 -0.74 -36.5 -1.73 -36.5 -2.75 C-24.68858054 -5.86265642 -10.47790592 -7.33453414 0 0 Z " fill="#448825" transform="translate(878.5,769.75)"/>
<path d="M0 0 C2.29151633 3.62823419 2.68490135 7.12226894 2.5 11.375 C0.88314521 16.13573911 -1.42044727 18.50828727 -5.5 21.375 C-4.73945312 22.03113281 -3.97890625 22.68726563 -3.1953125 23.36328125 C0.05979193 26.61723871 1.22949903 30.25515762 2.625 34.5625 C4.31739631 40.29451354 4.31739631 40.29451354 8.5 44.375 C8.5 45.365 8.5 46.355 8.5 47.375 C7.11135566 47.68056226 5.71318736 47.94300808 4.3125 48.1875 C3.53519531 48.33832031 2.75789062 48.48914063 1.95703125 48.64453125 C-0.5 48.375 -0.5 48.375 -3.13671875 46.36328125 C-5.79302408 43.00448195 -6.99964417 39.807621 -8.125 35.75 C-9.58543483 29.80450335 -9.58543483 29.80450335 -13.5 25.375 C-17.11023099 24.64458147 -17.11023099 24.64458147 -20.5 24.375 C-20.5 23.055 -20.5 21.735 -20.5 20.375 C-19.88511719 20.20484375 -19.27023437 20.0346875 -18.63671875 19.859375 C-13.69412171 18.40570137 -13.69412171 18.40570137 -9.4375 15.625 C-8.08037374 12.36789697 -8.12608907 9.86483538 -8.5 6.375 C-10.26015131 3.1899643 -10.99890916 2.54203028 -14.5 1.375 C-16.81 1.375 -19.12 1.375 -21.5 1.375 C-21.83 16.555 -22.16 31.735 -22.5 47.375 C-25.14 47.375 -27.78 47.375 -30.5 47.375 C-30.51030746 46.82820587 -30.52061493 46.28141174 -30.53123474 45.7180481 C-30.63919328 40.04058615 -30.75379974 34.36328636 -30.87231445 28.68603516 C-30.91569752 26.56562687 -30.95737007 24.44518288 -30.99731445 22.32470703 C-31.05493543 19.28146592 -31.11865325 16.2384051 -31.18359375 13.1953125 C-31.20030624 12.24318878 -31.21701874 11.29106506 -31.23423767 10.31008911 C-31.25418289 9.42932709 -31.27412811 8.54856506 -31.29467773 7.64111328 C-31.31022202 6.86389923 -31.3257663 6.08668518 -31.34178162 5.28591919 C-31.38783251 3.28943065 -31.38783251 3.28943065 -32.5 1.375 C-34.52463255 0.72286708 -34.52463255 0.72286708 -36.5 0.375 C-36.5 -0.615 -36.5 -1.605 -36.5 -2.625 C-26.41895412 -7.66552294 -9.29320749 -6.04058487 0 0 Z " fill="#448825" transform="translate(694.5,769.625)"/>
<path d="M0 0 C1 1 1 1 1.09765625 3.50390625 C1.08605469 4.51324219 1.07445312 5.52257812 1.0625 6.5625 C1.05347656 7.57441406 1.04445313 8.58632813 1.03515625 9.62890625 C1.02355469 10.41136719 1.01195312 11.19382812 1 12 C-0.90234375 11.65234375 -0.90234375 11.65234375 -3 11 C-4.04892238 9.36368108 -5.04906703 7.69514137 -6 6 C-9.77498955 3.4833403 -11.5631637 3.85056228 -15.8984375 4.46484375 C-18.15522318 4.88683187 -18.15522318 4.88683187 -20.125 6.6875 C-21.34009828 9.89883116 -20.96912706 11.72342756 -20 15 C-17.55698867 16.88845942 -17.55698867 16.88845942 -14.4375 18.125 C-13.35339844 18.62257813 -12.26929688 19.12015625 -11.15234375 19.6328125 C-9.29045881 20.44032146 -7.42850745 21.24767735 -5.56640625 22.0546875 C-0.86544659 24.20522103 1.77698789 26.09084826 4 31 C4.66033447 35.29596909 4.50879358 38.79496258 2.8125 42.8125 C-0.89847475 47.29126263 -4.42019828 49.46005472 -10 51 C-13.4375 51.265625 -13.4375 51.265625 -17 51.25 C-18.7634375 51.25773438 -18.7634375 51.25773438 -20.5625 51.265625 C-24.01937245 50.99850304 -26.77517473 50.23880483 -30 49 C-30 45.04 -30 41.08 -30 37 C-28.515 36.505 -28.515 36.505 -27 36 C-26.5875 36.928125 -26.175 37.85625 -25.75 38.8125 C-23.63365195 42.74325109 -23.63365195 42.74325109 -20 45 C-15.21540966 45.55614242 -11.18392604 45.59660322 -7 43 C-5.544724 40.08944799 -5.54932852 38.21908202 -6 35 C-9.56964695 31.72782363 -13.50788873 30.40835854 -18 28.6875 C-23.41566117 26.48087036 -27.22781715 24.27151306 -30 19 C-31.49529156 14.64302975 -31.19681655 11.65605516 -29.875 7.25 C-27.15084128 2.52812488 -24.39441624 0.23039775 -19.1875 -1.25 C-12.45251965 -2.6678906 -6.4963726 -2.25384356 0 0 Z " fill="#448825" transform="translate(777,767)"/>
<path d="M0 0 C1.81115956 1.81115956 1.38199448 4.61278227 1.5625 7.0625 C1.68818359 8.71958984 1.68818359 8.71958984 1.81640625 10.41015625 C1.87699219 11.26480469 1.93757812 12.11945312 2 13 C0.68 13 -0.64 13 -2 13 C-2.4125 12.05125 -2.825 11.1025 -3.25 10.125 C-5.30213634 6.44901809 -5.30213634 6.44901809 -9 5 C-12.91810079 4.6734916 -15.68646226 4.79097484 -19 7 C-20.43735246 9.87470493 -20.38172649 11.81894588 -20 15 C-15.486588 19.35282243 -10.13004344 21.11348535 -4.375 23.33984375 C-0.15801646 25.41417015 3.1450728 27.67361155 4.8125 32.2109375 C5.27789978 37.58242664 4.81689432 41.21127965 2 46 C-3.39423554 51.54407542 -9.18526781 52.11571591 -16.5625 52.25 C-21.14542473 52.27200684 -24.70984517 51.62574288 -29 50 C-29 46.04 -29 42.08 -29 38 C-27.515 37.505 -27.515 37.505 -26 37 C-25.34895833 38.7578125 -24.69791667 40.515625 -24.046875 42.2734375 C-22.67039464 44.54360287 -21.47278079 45.08663052 -19 46 C-14.18477802 46.81832932 -10.95887754 46.65203673 -6.875 43.875 C-4.80652972 41.14284065 -4.80652972 41.14284065 -4.5625 38 C-6.8823262 33.15862359 -11.22593324 32.03570935 -16 30 C-27.48970944 24.93341404 -27.48970944 24.93341404 -30 19 C-30.6472718 14.6975463 -30.51155057 11.21156714 -28.8125 7.1875 C-20.96729915 -2.28084585 -11.3483177 -1.52440089 0 0 Z " fill="#448825" transform="translate(588,766)"/>
<path d="M0 0 C1.00496852 3.01490557 1.10335303 5.04181692 1.0625 8.1875 C1.05347656 9.08855469 1.04445313 9.98960937 1.03515625 10.91796875 C1.02355469 11.60503906 1.01195312 12.29210937 1 13 C-0.9296875 12.65625 -0.9296875 12.65625 -3 12 C-4.125 9.5 -4.125 9.5 -5 7 C-9.54601728 4.72699136 -16.08679597 5.31265844 -21 5 C-21 10.94 -21 16.88 -21 23 C-19.02 22.67 -17.04 22.34 -15 22 C-13.04259807 21.93611612 -11.08329853 21.91361831 -9.125 21.9375 C-8.15820312 21.94652344 -7.19140625 21.95554687 -6.1953125 21.96484375 C-5.47085938 21.97644531 -4.74640625 21.98804688 -4 22 C-4 23.98 -4 25.96 -4 28 C-5.5207267 28.02753831 -7.04160674 28.04663375 -8.5625 28.0625 C-9.40941406 28.07410156 -10.25632812 28.08570313 -11.12890625 28.09765625 C-14.43763796 27.98511435 -17.72262852 27.46819593 -21 27 C-21 33.27 -21 39.54 -21 46 C-18.6075 45.9175 -16.215 45.835 -13.75 45.75 C-13.00331055 45.73420898 -12.25662109 45.71841797 -11.48730469 45.70214844 C-8.11004388 45.52956114 -6.26626498 45.21093719 -3.59375 43.09375 C-2.0942627 41.12383531 -0.97378477 39.27216446 0 37 C1.32 37.33 2.64 37.66 4 38 C3.69128878 39.79232337 3.37790936 41.58384321 3.0625 43.375 C2.88847656 44.37273438 2.71445312 45.37046875 2.53515625 46.3984375 C2 49 2 49 1 51 C-9.23 51 -19.46 51 -30 51 C-30.33 36.48 -30.66 21.96 -31 7 C-33.475 6.01 -33.475 6.01 -36 5 C-36 4.01 -36 3.02 -36 2 C-32.52870524 0.95914073 -29.2385007 0.80116689 -25.625 0.68359375 C-23.77648437 0.62075195 -23.77648437 0.62075195 -21.890625 0.55664062 C-20.60671875 0.51732422 -19.3228125 0.47800781 -18 0.4375 C-16.71609375 0.39431641 -15.4321875 0.35113281 -14.109375 0.30664062 C-9.40366 0.1515883 -4.70854153 0 0 0 Z " fill="#448825" transform="translate(632,766)"/>
<path d="M0 0 C0 4.29 0 8.58 0 13 C-0.99 13 -1.98 13 -3 13 C-3.66 10.69 -4.32 8.38 -5 6 C-10.61 5.67 -16.22 5.34 -22 5 C-22 10.94 -22 16.88 -22 23 C-20.02 22.67 -18.04 22.34 -16 22 C-13.87588004 21.93539781 -11.74997095 21.91388921 -9.625 21.9375 C-8.03558594 21.95103516 -8.03558594 21.95103516 -6.4140625 21.96484375 C-5.21910156 21.98224609 -5.21910156 21.98224609 -4 22 C-4 23.98 -4 25.96 -4 28 C-5.49988961 28.0276619 -6.99993869 28.0466861 -8.5 28.0625 C-9.3353125 28.07410156 -10.170625 28.08570313 -11.03125 28.09765625 C-14.70377528 27.9768495 -18.35386334 27.45576708 -22 27 C-21.67 32.94 -21.34 38.88 -21 45 C-18.6075 45.0825 -16.215 45.165 -13.75 45.25 C-12.62996582 45.30462402 -12.62996582 45.30462402 -11.48730469 45.36035156 C-8.06110105 45.41748567 -6.32458849 45.25292609 -3.59375 43.125 C-2.1064331 41.1419108 -0.9751444 39.27533693 0 37 C0.99 37.33 1.98 37.66 3 38 C2.88557539 39.60495567 2.75805306 41.20898119 2.625 42.8125 C2.55539062 43.70582031 2.48578125 44.59914063 2.4140625 45.51953125 C2 48 2 48 0 51 C-2.96508789 51.35644531 -2.96508789 51.35644531 -6.72265625 51.328125 C-7.38333603 51.32625183 -8.04401581 51.32437866 -8.72471619 51.32244873 C-10.12097217 51.3157261 -11.51720925 51.30180717 -12.91333008 51.28125 C-15.05763114 51.2500708 -17.20119779 51.24027799 -19.34570312 51.234375 C-29.83662324 51.16337676 -29.83662324 51.16337676 -31 50 C-31.0927833 48.61839885 -31.11747043 47.23211962 -31.11352539 45.84741211 C-31.11341209 44.52615578 -31.11341209 44.52615578 -31.11329651 43.1782074 C-31.10555458 41.74227989 -31.10555458 41.74227989 -31.09765625 40.27734375 C-31.0962413 39.30213272 -31.09482635 38.32692169 -31.09336853 37.32215881 C-31.08775133 34.19390857 -31.07519593 31.06572877 -31.0625 27.9375 C-31.05748722 25.82226666 -31.05292393 23.70703219 -31.04882812 21.59179688 C-31.03777631 16.39450704 -31.02102146 11.19725855 -31 6 C-32.65 5.67 -34.3 5.34 -36 5 C-36 4.01 -36 3.02 -36 2 C-32.74792482 0.91597494 -30.1804274 0.79506761 -26.7578125 0.68359375 C-25.52675781 0.64169922 -24.29570313 0.59980469 -23.02734375 0.55664062 C-21.73957031 0.51732422 -20.45179688 0.47800781 -19.125 0.4375 C-17.84496094 0.39431641 -16.56492187 0.35113281 -15.24609375 0.30664062 C-10.15972121 0.13922084 -5.08971903 0 0 0 Z " fill="#448825" transform="translate(740,766)"/>
<path d="M0 0 C2.98762875 2.33180781 3.80328833 3.40986499 5 7 C5.63883181 12.40388874 5.35417963 16.87268177 2.33984375 21.49609375 C-0.79027573 25.00949317 -5.32264465 27.43304784 -10 28 C-12.67271015 28.06720548 -15.32520009 28.04458 -18 28 C-18.33 27.01 -18.66 26.02 -19 25 C-18.22914063 24.74605469 -17.45828125 24.49210938 -16.6640625 24.23046875 C-15.66117187 23.88628906 -14.65828125 23.54210937 -13.625 23.1875 C-12.62726563 22.85105469 -11.62953125 22.51460937 -10.6015625 22.16796875 C-7.7154291 21.1493425 -7.7154291 21.1493425 -6 18 C-5.68399811 15.85209071 -5.68399811 15.85209071 -5.75 13.5625 C-5.74484375 12.80066406 -5.7396875 12.03882813 -5.734375 11.25390625 C-6.02902112 8.75374722 -6.69884627 7.14362736 -8 5 C-11.7711902 2.24413024 -15.02518696 2.62185163 -20 2 C-20 17.51 -20 33.02 -20 49 C-22.97 49 -25.94 49 -29 49 C-29.33 33.82 -29.66 18.64 -30 3 C-31.32 2.67 -32.64 2.34 -34 2 C-34 1.01 -34 0.02 -34 -1 C-22.93701436 -3.85496404 -10.63048212 -4.90957687 0 0 Z " fill="#448825" transform="translate(337,768)"/>
<path d="M0 0 C2.97 0 5.94 0 9 0 C12.93886039 9.29603235 16.68143475 18.66433536 20.35864258 28.06640625 C21.00060696 29.70426163 21.64551979 31.34096409 22.29321289 32.9765625 C23.23977588 35.36728036 24.17749454 37.7612969 25.11328125 40.15625 C25.54910271 41.24999939 25.54910271 41.24999939 25.99372864 42.36584473 C27.33907704 45.8378638 28 48.22212995 28 52 C25.03 52 22.06 52 19 52 C16.69 46.39 14.38 40.78 12 35 C6.06 34.67 0.12 34.34 -6 34 C-6.33 35.98 -6.66 37.96 -7 40 C-7.79671124 42.14720211 -8.65188125 44.27357211 -9.5625 46.375 C-10.01753906 47.43460938 -10.47257812 48.49421875 -10.94140625 49.5859375 C-11.29074219 50.38257813 -11.64007813 51.17921875 -12 52 C-13.98 52 -15.96 52 -18 52 C-17.40317598 46.45416184 -15.4228069 41.91385226 -13.18359375 36.875 C-12.41189785 35.09905023 -11.64042008 33.32300567 -10.86914062 31.546875 C-9.6526555 28.76718067 -8.43268891 25.98909168 -7.20825195 23.21289062 C-6.02396643 20.52092127 -4.8531344 17.82340113 -3.68359375 15.125 C-3.31487656 14.29983887 -2.94615936 13.47467773 -2.56626892 12.62451172 C-0.67251464 8.23729025 0.46254438 4.88148634 0 0 Z M3 11 C1.9936345 13.43504509 0.99473587 15.87270864 0 18.3125 C-0.28617187 19.00279297 -0.57234375 19.69308594 -0.8671875 20.40429688 C-2.08910744 23.41545674 -3 25.71886984 -3 29 C1.29 29 5.58 29 10 29 C8.2177429 22.88940424 6.30678315 16.9317281 4 11 C3.67 11 3.34 11 3 11 Z " fill="#448825" transform="translate(356,765)"/>
<path d="M0 0 C14.52 0 29.04 0 44 0 C44.495 6.435 44.495 6.435 45 13 C43.68 13.33 42.36 13.66 41 14 C40.34 11.36 39.68 8.72 39 6 C34.71 5.67 30.42 5.34 26 5 C26 20.18 26 35.36 26 51 C23.03 51 20.06 51 17 51 C17 35.82 17 20.64 17 5 C7.48079166 4.88597055 7.48079166 4.88597055 4 9 C2.80972016 11.59915538 2.80972016 11.59915538 2 14 C1.01 14 0.02 14 -1 14 C-1.02694851 12.04174127 -1.04637218 10.08337774 -1.0625 8.125 C-1.07410156 7.03445313 -1.08570313 5.94390625 -1.09765625 4.8203125 C-1 2 -1 2 0 0 Z " fill="#448825" transform="translate(885,766)"/>
<path d="M0 0 C0.98484375 0.00902344 1.9696875 0.01804687 2.984375 0.02734375 C4.10585938 0.04474609 4.10585938 0.04474609 5.25 0.0625 C5.27526787 7.16494999 5.29283201 14.26738848 5.30493164 21.36987305 C5.30997349 23.78817172 5.31680678 26.20646733 5.32543945 28.62475586 C5.33751157 32.09229283 5.34322963 35.55978966 5.34765625 39.02734375 C5.35281754 40.11587143 5.35797882 41.20439911 5.36329651 42.32591248 C5.36337204 43.32687454 5.36344757 44.32783661 5.36352539 45.35913086 C5.365746 46.24515488 5.36796661 47.13117889 5.37025452 48.04405212 C5.25 50.0625 5.25 50.0625 4.25 51.0625 C1.57941149 51.20365161 -1.07432238 51.10497107 -3.75 51.0625 C-3.75142502 50.50539841 -3.75285004 49.94829681 -3.75431824 49.37431335 C-3.77398458 43.58277977 -3.82819084 37.79230454 -3.90258789 32.0012207 C-3.92580413 29.83918853 -3.94017207 27.67704269 -3.94555664 25.51489258 C-3.95481962 22.40894428 -3.99575236 19.30479297 -4.04296875 16.19921875 C-4.0390361 15.23038254 -4.03510345 14.26154633 -4.03105164 13.26335144 C-4.08565716 10.75949024 -4.16083574 8.49699911 -4.75 6.0625 C-7.13967693 3.98269377 -7.13967693 3.98269377 -9.75 3.0625 C-9.75 2.4025 -9.75 1.7425 -9.75 1.0625 C-6.43929162 0.06140485 -3.44915231 -0.04106134 0 0 Z " fill="#448825" transform="translate(544.75,765.9375)"/>
<path d="M0 0 C0.804375 0.495 1.60875 0.99 2.4375 1.5 C2.01959088 6.2363034 -0.02495725 9.43647042 -3.5625 12.5 C-9.12704807 15.85812596 -14.34267715 15.89532148 -20.5625 14.5 C-23.625 13.4375 -23.625 13.4375 -25.5625 12.5 C-24.34334942 6.2518533 -20.53702989 3.07575119 -15.5625 -0.5 C-10.16995798 -2.29751401 -5.23742109 -2.20522993 0 0 Z " fill="#39B54A" transform="translate(601.5625,487.5)"/>
<path d="M0 0 C3.23644493 3.00527029 4.19307362 5.3008238 5.625 9.4375 C-0.31465609 12.5828498 -5.59505759 14.68878881 -12.375 13.4375 C-17.27041347 11.08044907 -19.52612912 8.5490842 -21.375 3.4375 C-21.045 2.4475 -20.715 1.4575 -20.375 0.4375 C-13.55961689 -1.87486213 -6.68991305 -3.09718197 0 0 Z " fill="#39B349" transform="translate(642.375,524.5625)"/>
<path d="M0 0 C5.61 0 11.22 0 17 0 C17 5.61 17 11.22 17 17 C11.39 17 5.78 17 0 17 C0 11.39 0 5.78 0 0 Z " fill="#448825" transform="translate(614,616)"/>
<path d="M0 0 C5.61 0 11.22 0 17 0 C17 5.61 17 11.22 17 17 C11.39 17 5.78 17 0 17 C0 11.39 0 5.78 0 0 Z " fill="#448825" transform="translate(614,591)"/>
<path d="M0 0 C-0.26620148 7.18744008 -2.57141044 12.31940264 -7 18 C-11.32425069 21.12818135 -14.73731611 21.31576103 -20 21 C-19.74664919 13.99485011 -19.35485204 8.64953778 -15 3 C-10.18325317 -0.47253841 -5.69974592 -0.34198476 0 0 Z " fill="#D9E021" transform="translate(498,491)"/>
<path d="M0 0 C1.8871875 0.0309375 1.8871875 0.0309375 3.8125 0.0625 C3.2822977 7.48533216 1.55586588 13.74875371 -3.9375 19.0625 C-8.13918984 21.64815529 -10.34542966 21.47991986 -15.1875 21.0625 C-15.5096077 15.02596301 -15.75556924 10.23004855 -12.1875 5.0625 C-8.2750291 1.44346442 -5.32067021 -0.0872241 0 0 Z " fill="#D9E021" transform="translate(810.1875,446.9375)"/>
<path d="M0 0 C1.65 0.33 3.3 0.66 5 1 C6.32 4.96 7.64 8.92 9 13 C10.65 8.71 12.3 4.42 14 0 C15.65 0 17.3 0 19 0 C19.33 6.93 19.66 13.86 20 21 C18.68 21 17.36 21 16 21 C15.67 17.37 15.34 13.74 15 10 C13.68 13.63 12.36 17.26 11 21 C9.68 21 8.36 21 7 21 C5.68 17.7 4.36 14.4 3 11 C2.67 14.3 2.34 17.6 2 21 C0.68 21 -0.64 21 -2 21 C-1.85888117 18.24968413 -1.71228835 15.49984582 -1.5625 12.75 C-1.52318359 11.97269531 -1.48386719 11.19539062 -1.44335938 10.39453125 C-1.40146484 9.64042969 -1.35957031 8.88632812 -1.31640625 8.109375 C-1.27974854 7.41811523 -1.24309082 6.72685547 -1.20532227 6.01464844 C-0.99324476 3.93371671 -0.55491323 2.01427578 0 0 Z " fill="#534741" transform="translate(501,835)"/>
<path d="M0 0 C5.28 0 10.56 0 16 0 C16 5.61 16 11.22 16 17 C10.72 17 5.44 17 0 17 C0 11.39 0 5.78 0 0 Z " fill="#448825" transform="translate(591,616)"/>
<path d="M0 0 C5.28 0 10.56 0 16 0 C16 5.61 16 11.22 16 17 C10.72 17 5.44 17 0 17 C0 11.39 0 5.78 0 0 Z " fill="#448825" transform="translate(591,591)"/>
<path d="M0 0 C0.79921875 0.01804687 1.5984375 0.03609375 2.421875 0.0546875 C3.02515625 0.07789063 3.6284375 0.10109375 4.25 0.125 C4.59573287 5.65672585 4.05367882 10.24765684 1.25 15.125 C-2.09815432 18.23956216 -4.57517532 19.34904019 -9.0625 19.4375 C-12.75 19.125 -12.75 19.125 -13.75 18.125 C-13.81742623 11.84087571 -12.38372181 7.21221053 -8.75 2.125 C-5.76756043 0.20636053 -3.5107879 -0.10325847 0 0 Z " fill="#39B54A" transform="translate(759.75,491.875)"/>
<path d="M0 0 C1.8871875 0.0309375 1.8871875 0.0309375 3.8125 0.0625 C4.24262253 7.23120876 3.62739949 11.82110059 -1.25 17.4375 C-5.51321318 19.79587325 -9.41892227 19.39583747 -14.1875 19.0625 C-13.77051256 12.59200523 -12.96394479 7.41737078 -8.6875 2.25 C-5.94561877 0.07934403 -3.35033057 -0.05492345 0 0 Z " fill="#39B54A" transform="translate(656.1875,393.9375)"/>
<path d="M0 0 C0.5834231 10.93378113 0.5834231 10.93378113 -3 16 C-6.95737435 19.59761305 -10.91028541 19.26114453 -15.98828125 19.10546875 C-16.65214844 19.07066406 -17.31601562 19.03585937 -18 19 C-16.1410694 5.25369738 -16.1410694 5.25369738 -10.25 0.625 C-6.80062538 -0.33315962 -3.57255374 -0.11908512 0 0 Z " fill="#39B54A" transform="translate(579,432)"/>
<path d="M0 0 C5.85352127 0.78659884 9.08418933 3.75055524 13 8 C15.59815941 12.88453969 15.10315965 16.73877705 14 22 C12.44921875 24.2421875 12.44921875 24.2421875 11 26 C4.31014191 20.62904505 0.30787613 16.6068919 -0.75 7.8125 C-1.04095378 4.65565145 -1.02014255 3.06042766 0 0 Z " fill="#39B54A" transform="translate(423,521)"/>
<path d="M0 0 C5.93213258 0.56496501 9.92103361 2.56259113 13.8125 7.125 C15.54265948 11.31380717 15.74689342 15.50517633 16 20 C14 21 14 21 11.5390625 20.36328125 C10.57742188 20.01652344 9.61578125 19.66976562 8.625 19.3125 C7.66851563 18.97863281 6.71203125 18.64476562 5.7265625 18.30078125 C2.76264194 16.88676184 1.06255486 15.54507916 -1 13 C-2.31699099 9.1928364 -2.25565055 5.81808177 -1.0625 2 C-0.711875 1.34 -0.36125 0.68 0 0 Z " fill="#006837" transform="translate(540,526)"/>
<path d="M0 0 C4.93448059 0.16448269 7.08594856 0.24153179 10.9375 3.4375 C13.72404531 6.89957144 14.13794438 8.51274357 14.125 12.875 C14.12757813 13.73867188 14.13015625 14.60234375 14.1328125 15.4921875 C14.01023921 17.80665971 13.64966445 19.78289116 13 22 C7.77411192 21.68327951 4.4390165 18.69889181 1 15 C-0.98692931 11.88324813 -1.24706631 9.47853541 -1.1875 5.8125 C-1.18105469 4.93207031 -1.17460937 4.05164063 -1.16796875 3.14453125 C-1 1 -1 1 0 0 Z " fill="#D9E021" transform="translate(465,576)"/>
<path d="M0 0 C3.57026711 0.59237616 5.45816451 1.97180604 8.125 4.375 C8.80820312 4.98085938 9.49140625 5.58671875 10.1953125 6.2109375 C12.44740683 8.44353318 13.90132473 10.13078694 14.265625 13.33984375 C14.26046875 14.19707031 14.2553125 15.05429687 14.25 15.9375 C14.25515625 16.79214844 14.2603125 17.64679688 14.265625 18.52734375 C13.98713633 21.11974567 13.30669172 22.76514234 12 25 C7.03602813 23.75900703 4.67825877 22.39999655 2 18 C-0.05927435 11.92514065 -0.23523687 6.37753287 0 0 Z " fill="#39B54A" transform="translate(610,430)"/>
<path d="M0 0 C5.20624891 0.88716349 8.41618972 4.32954816 12 8 C14.58858412 11.93464786 13.99955816 15.50386611 13.484375 20.01171875 C13 22 13 22 11 24 C7.88164387 23.83587599 6.29193114 23.22520403 3.8125 21.3125 C0.1580909 16.64997804 -0.24294729 11.90441721 -0.125 6.125 C-0.10695313 4.97257812 -0.08890625 3.82015625 -0.0703125 2.6328125 C-0.04710937 1.76398438 -0.02390625 0.89515625 0 0 Z " fill="#39B54A" transform="translate(694,434)"/>
<path d="M0 0 C3.38372878 1.2230345 5.96869794 2.51666833 8.6875 4.875 C9.55955078 5.61363281 9.55955078 5.61363281 10.44921875 6.3671875 C14.0708969 10.18044057 14.41956123 13.79513337 14.3359375 18.87109375 C14 21 14 21 12 23.5625 C11.34 24.036875 10.68 24.51125 10 25 C5.55494551 22.77747275 3.42157238 20.3242364 1 16 C0.0520235 12.34876148 -0.10783172 8.95003236 -0.0625 5.1875 C-0.05347656 4.21167969 -0.04445313 3.23585938 -0.03515625 2.23046875 C-0.02355469 1.49441406 -0.01195312 0.75835937 0 0 Z " fill="#39B54A" transform="translate(687,482)"/>
<path d="M0 0 C6.14541502 2.39821074 11.03811523 7.07623046 14 13 C14.3793347 18.02618483 13.98263247 20.89888036 11 25 C7.60538272 24.71711523 6.25867941 24.25867941 3.8125 21.8125 C0.50327834 16.67750088 -0.24854478 12.17869418 -0.125 6.125 C-0.10695313 4.97257812 -0.08890625 3.82015625 -0.0703125 2.6328125 C-0.04710937 1.76398438 -0.02390625 0.89515625 0 0 Z " fill="#39B54A" transform="translate(733,438)"/>
<path d="M0 0 C2.5 1.75 2.5 1.75 4 4 C4.125 6.5 4.125 6.5 3 9 C-1.09207606 12.50749377 -4.61013923 13.90200253 -10 14 C-13.26215041 12.51720436 -15.60451577 10.64764046 -18 8 C-16.49364535 3.78220697 -13.75987578 2.2252326 -10 0 C-6.19426871 -1.2685771 -3.89430952 -0.88817586 0 0 Z " fill="#39B54A" transform="translate(531,551)"/>
<path d="M0 0 C5.48313219 1.27514702 7.81535017 3.39995024 11 8 C13.31852772 12.96827369 13.21472253 17.63193686 13 23 C8.00232235 22.5240307 4.92949742 21.12573658 1 18 C-1.07967125 14.79296487 -1.24405255 12.21623881 -1.1875 8.4375 C-1.18105469 7.48746094 -1.17460938 6.53742188 -1.16796875 5.55859375 C-1 3 -1 3 0 0 Z " fill="#006837" transform="translate(543,432)"/>
<path d="M0 0 C10.72783633 -0.6249225 10.72783633 -0.6249225 15.5625 1.75 C19.31733593 5.21600239 21.58552496 7.74998288 22 13 C19.66373495 15.33626505 19.01046981 15.36789798 15.8125 15.5 C11.1587584 15.3877715 8.79072993 14.00717395 5.5078125 10.79296875 C2.92720278 7.72431626 0 4.14598658 0 0 Z " fill="#39B54A" transform="translate(446,429)"/>
<path d="M0 0 C12.15247042 -0.47518801 12.15247042 -0.47518801 16 3 C18.56632517 6.42176689 18.36435051 9.84640421 18 14 C16.53420051 17.79383397 15.33020417 18.81584767 11.75 20.8125 C7.90784262 22.02918317 5.0013697 22.32010958 1 22 C0 21 0 21 -0.11352539 18.95874023 C-0.10828857 18.08419189 -0.10305176 17.20964355 -0.09765625 16.30859375 C-0.09443359 15.36435547 -0.09121094 14.42011719 -0.08789062 13.44726562 C-0.07951172 12.45404297 -0.07113281 11.46082031 -0.0625 10.4375 C-0.05798828 9.44041016 -0.05347656 8.44332031 -0.04882812 7.41601562 C-0.03700007 4.94395151 -0.02051849 2.47200482 0 0 Z M4 3 C4 7.95 4 12.9 4 18 C7.04998976 19.38272844 7.04998976 19.38272844 10.125 17.6875 C13.07292713 16.3083027 13.07292713 16.3083027 14 14 C14.50031206 10.58428147 14.50031206 10.58428147 14 7 C11.9315113 4.4285061 11.9315113 4.4285061 9 3 C7.35 3 5.7 3 4 3 Z " fill="#534741" transform="translate(673,835)"/>
<path d="M0 0 C1.09570312 0.00902344 2.19140625 0.01804687 3.3203125 0.02734375 C4.16335938 0.03894531 5.00640625 0.05054688 5.875 0.0625 C5.49307705 5.69586356 5.09677157 8.96489818 0.875 13.0625 C-3.38300538 14.48183513 -7.35411538 14.78901677 -11.5625 13.0625 C-12.078125 12.7325 -12.59375 12.4025 -13.125 12.0625 C-13.4375 9.375 -13.4375 9.375 -13.125 6.0625 C-8.81669051 0.96055455 -6.51906912 -0.0693518 0 0 Z " fill="#006837" transform="translate(582.125,564.9375)"/>
<path d="M0 0 C3.0625 2 3.0625 2 5 4 C3.27592413 8.38855677 0.17026127 10.91486937 -4 13 C-10.26407421 13.52200618 -13.09822453 12.92142038 -18 9 C-14.84884103 0.97886808 -7.86585224 -1.04425969 0 0 Z " fill="#006837" transform="translate(456,564)"/>
<path d="M0 0 C2.93745832 1.99997162 4.53770397 3.49145507 5.59375 6.9375 C6.28576655 11.08959929 6.25069379 14.31704653 4 18 C1.77724169 20.55953987 0.23677415 21.86748848 -3.1875 22.234375 C-7.51106344 22.03526353 -9.43945451 21.56054549 -12.5625 18.4375 C-14.25950639 14.37944124 -14.87731569 11.32637051 -14 7 C-10.50574188 0.59386012 -7.31488676 -1.2051346 0 0 Z M-7.6875 4.375 C-9.50191156 6.62141432 -9.98799526 7.90996442 -10.375 10.8125 C-9.88157547 15.00660847 -8.14580144 16.32606877 -5 19 C-2.28878505 18.14382686 -0.44611539 17.54750525 1.375 15.3125 C2.28848169 11.93261775 1.79882263 9.37963422 1 6 C-0.16884106 3.99515224 -0.16884106 3.99515224 -2 3 C-5.8459699 2.5788847 -5.8459699 2.5788847 -7.6875 4.375 Z " fill="#534741" transform="translate(617,835)"/>
<path d="M0 0 C2.43119623 1.87015094 3.64069173 3.28138345 5 6 C5.50927724 10.71707604 5.59709492 14.72792821 3.5625 19.0625 C-0.08944956 21.82373015 -3.45732904 22.43726244 -8 22 C-10.92143417 20.23496686 -12.47923817 19.04152365 -14 16 C-14.53118252 11.08003072 -14.75105553 7.22672403 -12.125 2.9375 C-8.44471757 -0.41805163 -4.84612011 -0.71972081 0 0 Z M-8.1875 4.5 C-10.86435754 8.19221729 -10.42969373 10.48821579 -10 15 C-8.36246318 18.04444636 -8.36246318 18.04444636 -6.125 18.8125 C-3.45757574 19.04786096 -2.21946294 18.45413089 0 17 C1.59772112 13.80455776 1.50722235 10.46830418 1 7 C-0.64753015 4.4331496 -0.64753015 4.4331496 -3 3 C-6.02970006 2.71723582 -6.02970006 2.71723582 -8.1875 4.5 Z " fill="#534741" transform="translate(749,835)"/>
<path d="M0 0 C3 1 3 1 4.16796875 2.85546875 C7.9148265 11.42586751 7.9148265 11.42586751 7 16 C5.50231915 18.25429471 3.88115959 20.02478243 2 22 C-0.18486483 21.62329917 -1.80490291 21.12283891 -3.6875 19.9375 C-5.79408477 16.82777963 -6.23455348 13.66815576 -6 10 C-4.66139759 6.10029603 -2.91700527 2.91700527 0 0 Z " fill="#D8DF21" transform="translate(513,569)"/>
<path d="M0 0 C10.90043367 -0.72437817 10.90043367 -0.72437817 14.6875 1.8125 C17.61309967 5.84508333 17.7978138 8.50358932 17.52734375 13.3984375 C16.75352085 17.21596379 15.17360662 18.8361773 12 21 C8.52073635 22.50768091 4.74101654 22.14117044 1 22 C0 21 0 21 -0.11352539 18.95874023 C-0.10828857 18.08419189 -0.10305176 17.20964355 -0.09765625 16.30859375 C-0.09443359 15.36435547 -0.09121094 14.42011719 -0.08789062 13.44726562 C-0.07951172 12.45404297 -0.07113281 11.46082031 -0.0625 10.4375 C-0.05798828 9.44041016 -0.05347656 8.44332031 -0.04882812 7.41601562 C-0.03700007 4.94395151 -0.02051849 2.47200482 0 0 Z M3 3 C3 7.95 3 12.9 3 18 C5.89614016 19.26364421 5.89614016 19.26364421 8.5 18.375 C11.64530935 16.64507986 12.64388846 15.31493933 14 12 C13.93021482 8.51074078 13.66290584 6.73656205 11.3125 4.125 C8.52936992 2.56253428 8.52936992 2.56253428 3 3 Z " fill="#534741" transform="translate(427,835)"/>
<path d="M0 0 C0.99 0 1.98 0 3 0 C6.2806712 5.50684094 7.93508934 9.55827344 7 16 C5.14397521 19.50666979 3.05887406 21.67057251 -0.8125 22.875 C-1.534375 22.91625 -2.25625 22.9575 -3 23 C-5.32093592 18.35812815 -4.43250131 12.04959327 -4 7 C-2.97118714 4.14717831 -1.85415649 2.4335804 0 0 Z " fill="#006837" transform="translate(476,419)"/>
<path d="M0 0 C10 0 10 0 13 2 C14.04086843 4.96247168 14.29415549 6.3770825 12.9375 9.25 C11.52133768 13.40407614 12.83086482 16.87205348 14 21 C12.68 21 11.36 21 10 21 C9.34 18.36 8.68 15.72 8 13 C6.68 13 5.36 13 4 13 C4 15.64 4 18.28 4 21 C2.68 21 1.36 21 0 21 C0 14.07 0 7.14 0 0 Z M4 3 C4 5.31 4 7.62 4 10 C5.65 9.67 7.3 9.34 9 9 C9.6814823 7.10820797 9.6814823 7.10820797 10 5 C9.34 4.34 8.68 3.68 8 3 C6.68 3 5.36 3 4 3 Z " fill="#534741" transform="translate(791,835)"/>
<path d="M0 0 C10 0 10 0 13 2 C13.328125 3.875 13.328125 3.875 13.25 6 C13.23453125 6.70125 13.2190625 7.4025 13.203125 8.125 C13 10 13 10 12 12 C12.3191623 14.22624593 12.3191623 14.22624593 12.9375 16.625 C13.22947266 17.85089844 13.22947266 17.85089844 13.52734375 19.1015625 C13.68332031 19.72804688 13.83929687 20.35453125 14 21 C12.68 21 11.36 21 10 21 C9.34 18.36 8.68 15.72 8 13 C6.68 13 5.36 13 4 13 C4 15.64 4 18.28 4 21 C2.68 21 1.36 21 0 21 C0 14.07 0 7.14 0 0 Z M4 3 C4 5.31 4 7.62 4 10 C5.65 9.67 7.3 9.34 9 9 C9.6814823 7.10820797 9.6814823 7.10820797 10 5 C9.34 4.34 8.68 3.68 8 3 C6.68 3 5.36 3 4 3 Z " fill="#534741" transform="translate(626,835)"/>
<path d="M0 0 C5.68444867 1.25057871 8.77543669 2.97660637 13 7 C14.5923093 10.18461859 14.38905037 13.53391489 14 17 C12.8125 19.0625 12.8125 19.0625 11 20 C7.58241074 20 6.30133322 19.28411418 3.8125 16.9375 C0.5146328 11.59268074 -0.31260116 6.25202315 0 0 Z " fill="#D9E021" transform="translate(639,468)"/>
<path d="M0 0 C2.6875 1.75 2.6875 1.75 4 4 C3.92614258 6.4372948 3.22290938 7.64596746 1.9375 9.6875 C-1.17677339 11.79716907 -4.32854477 12.22132886 -8 12 C-10.96257705 11.09079532 -13.6062546 9.98782349 -16 8 C-16.72265625 5.85546875 -16.72265625 5.85546875 -17 4 C-11.42658415 0.12284115 -6.7963785 -1.17992682 0 0 Z " fill="#006837" transform="translate(483,460)"/>
<path d="M0 0 C6.38288725 1.87084626 10.57971655 4.11159992 14 10 C14.65514009 13.71246053 14.50776694 15.19603567 12.5 18.375 C11.7575 19.179375 11.7575 19.179375 11 20 C5.5557656 19.51606805 5.5557656 19.51606805 3.25 17.375 C0.21440095 11.60736181 -0.2232679 6.3631351 0 0 Z " fill="#D9E021" transform="translate(733,409)"/>
<path d="M0 0 C0.66 0 1.32 0 2 0 C8.77637383 11.31309869 8.77637383 11.31309869 7.375 17.25 C6.92125 18.4875 6.4675 19.725 6 21 C3.8125 21.8125 3.8125 21.8125 1 22 C-1.94969553 20.03353631 -3.67105109 18.49444895 -4.453125 14.94140625 C-4.74059876 9.01739334 -2.9452963 5.06222802 0 0 Z " fill="#D8DF21" transform="translate(576,511)"/>
<path d="M0 0 C9 0 9 0 11.5625 1.125 C13.6294018 3.82095887 13.33873735 5.68037396 13 9 C12.80921875 9.63550781 12.6184375 10.27101563 12.421875 10.92578125 C11.92441046 13.37164856 12.2611478 14.86287458 12.9375 17.25 C13.288125 18.4875 13.63875 19.725 14 21 C12.68 21 11.36 21 10 21 C9.5875 19.865625 9.175 18.73125 8.75 17.5625 C7.43314602 13.90456616 7.43314602 13.90456616 4.8125 13.0625 C4.214375 13.041875 3.61625 13.02125 3 13 C3 15.64 3 18.28 3 21 C2.01 21 1.02 21 0 21 C0 14.07 0 7.14 0 0 Z M3 3 C3 5.31 3 7.62 3 10 C4.98 9.67 6.96 9.34 9 9 C9.33 8.01 9.66 7.02 10 6 C8.7511573 4.4166747 8.7511573 4.4166747 7 3 C5.68 3 4.36 3 3 3 Z " fill="#534741" transform="translate(448,835)"/>
<path d="M0 0 C4.51707932 0.5314211 7.38687577 2.29015683 11 5 C12.24377393 7.48754786 12.13306235 9.22655301 12.125 12 C12.12757813 12.886875 12.13015625 13.77375 12.1328125 14.6875 C12 17 12 17 11 19 C8.25 19.375 8.25 19.375 5 19 C-0.16010718 13.00311869 -0.12722749 7.50642168 0 0 Z " fill="#D9E021" transform="translate(467,526)"/>
<path d="M0 0 C5.00677802 0.2861016 7.47022642 2.7108928 11 6 C12.12256131 8.24512262 12.13413762 9.51456649 12.125 12 C12.12757813 12.70125 12.13015625 13.4025 12.1328125 14.125 C12 16 12 16 11 18 C6.133091 17.54726428 3.5580675 16.35474936 0 13 C-1.25069801 10.49860398 -1.13302467 8.72607309 -1.125 5.9375 C-1.12757813 5.03902344 -1.13015625 4.14054688 -1.1328125 3.21484375 C-1 1 -1 1 0 0 Z " fill="#006837" transform="translate(708,529)"/>
<path d="M0 0 C2.3125 0.1875 2.3125 0.1875 5 1 C6.8125 3.5625 6.8125 3.5625 8 6 C8.86625 4.515 8.86625 4.515 9.75 3 C10.4925 2.01 11.235 1.02 12 0 C13.32 0 14.64 0 16 0 C14.77472971 4.05281712 13.30119506 7.44360764 11 11 C11.3609375 11.55429687 11.721875 12.10859375 12.09375 12.6796875 C12.5578125 13.40414062 13.021875 14.12859375 13.5 14.875 C13.9640625 15.59429688 14.428125 16.31359375 14.90625 17.0546875 C16 19 16 19 16 21 C13.625 20.8125 13.625 20.8125 11 20 C9.6875 17.4375 9.6875 17.4375 9 15 C6.9754262 16.93254772 5.57894208 18.63158688 4 21 C2.68 21 1.36 21 0 21 C1.10788831 18.10244596 2.16457864 15.76109552 3.9375 13.1875 C5.34639436 10.15119776 5.34639436 10.15119776 4.078125 7.91015625 C3.1629737 6.48858696 2.20347006 5.09446339 1.19921875 3.734375 C0 2 0 2 0 0 Z " fill="#534741" transform="translate(554,835)"/>
<path d="M0 0 C4.45452194 0.26997103 7.36289446 2.1541912 10.6171875 5.03515625 C13.18163321 8.67898729 12.52925353 12.7491701 12 17 C9.70852484 17.78737913 8.4640386 18.16838532 6.1484375 17.328125 C5.56320312 16.97234375 4.97796875 16.6165625 4.375 16.25 C3.78460938 15.90453125 3.19421875 15.5590625 2.5859375 15.203125 C1 14 1 14 -1 11 C-1.23046875 8.80859375 -1.23046875 8.80859375 -1.1875 6.4375 C-1.18105469 5.65246094 -1.17460937 4.86742187 -1.16796875 4.05859375 C-1 2 -1 2 0 0 Z " fill="#006837" transform="translate(491,437)"/>
<path d="M0 0 C1.65 0.33 3.3 0.66 5 1 C6.00486895 3.95670218 7.00306024 6.91561577 8 9.875 C8.28617187 10.71675781 8.57234375 11.55851563 8.8671875 12.42578125 C9.13789063 13.23144531 9.40859375 14.03710938 9.6875 14.8671875 C9.93886719 15.61081543 10.19023437 16.35444336 10.44921875 17.12060547 C11 19 11 19 11 21 C9.68 21 8.36 21 7 21 C6.34 19.35 5.68 17.7 5 16 C3.02 16 1.04 16 -1 16 C-1.99 18.475 -1.99 18.475 -3 21 C-4.32 21 -5.64 21 -7 21 C-4.96192707 13.8821847 -2.59655258 6.93292719 0 0 Z M1 7 C0.67 8.65 0.34 10.3 0 12 C1.32 12 2.64 12 4 12 C3.67 10.35 3.34 8.7 3 7 C2.34 7 1.68 7 1 7 Z " fill="#534741" transform="translate(486,835)"/>
<path d="M0 0 C0.56606361 10.79713931 0.56606361 10.79713931 -3 15 C-4.9375 16.875 -4.9375 16.875 -7 18 C-9.1875 17.875 -9.1875 17.875 -11 17 C-12.23671367 13.28985899 -12.56368603 9.85561242 -12 6 C-8.50794645 0.5291161 -6.29959294 -0.13694767 0 0 Z " fill="#D9E021" transform="translate(456,526)"/>
<path d="M0 0 C10 0 10 0 12.6875 1.5625 C14.56186454 5.04346271 13.97303562 7.2468626 13 11 C10.23776722 13.76223278 7.79293383 13.57856291 4 14 C4 16.31 4 18.62 4 21 C2.68 21 1.36 21 0 21 C0 14.07 0 7.14 0 0 Z M4 3 C4 5.31 4 7.62 4 10 C5.65 10 7.3 10 9 10 C9.67958603 7.60280568 9.67958603 7.60280568 10 5 C9.34 4.34 8.68 3.68 8 3 C6.68 3 5.36 3 4 3 Z " fill="#534741" transform="translate(573,835)"/>
<path d="M0 0 C3.96 0 7.92 0 12 0 C12 0.99 12 1.98 12 3 C9.36 3 6.72 3 4 3 C4 4.98 4 6.96 4 9 C6.64 9 9.28 9 12 9 C12 9.99 12 10.98 12 12 C9.36 12 6.72 12 4 12 C4 13.98 4 15.96 4 18 C6.97 18 9.94 18 13 18 C13 18.99 13 19.98 13 21 C8.71 21 4.42 21 0 21 C0 14.07 0 7.14 0 0 Z " fill="#534741" transform="translate(775,835)"/>
<path d="M0 0 C2.475 0.495 2.475 0.495 5 1 C6.32 5.29 7.64 9.58 9 14 C10.65 9.38 12.3 4.76 14 0 C15.32 0 16.64 0 18 0 C16.62820313 7.48252838 14.07836721 14.05604954 11 21 C9.35 20.67 7.7 20.34 6 20 C4.99769027 16.85489779 3.99854009 13.70880088 3 10.5625 C2.71382812 9.66466797 2.42765625 8.76683594 2.1328125 7.84179688 C1.86210938 6.98779297 1.59140625 6.13378906 1.3125 5.25390625 C1.06113281 4.46314697 0.80976562 3.6723877 0.55078125 2.85766602 C0 1 0 1 0 0 Z " fill="#534741" transform="translate(755,835)"/>
<path d="M0 0 C3.96 0 7.92 0 12 0 C12 0.99 12 1.98 12 3 C9.36 3 6.72 3 4 3 C4 4.98 4 6.96 4 9 C6.64 9 9.28 9 12 9 C12 9.99 12 10.98 12 12 C9.36 12 6.72 12 4 12 C4 13.98 4 15.96 4 18 C6.97 18 9.94 18 13 18 C13 18.99 13 19.98 13 21 C8.71 21 4.42 21 0 21 C0 14.07 0 7.14 0 0 Z " fill="#534741" transform="translate(643,835)"/>
<path d="M0 0 C3.96 0 7.92 0 12 0 C12 0.99 12 1.98 12 3 C9.36 3 6.72 3 4 3 C4 4.98 4 6.96 4 9 C6.31 9 8.62 9 11 9 C11 9.99 11 10.98 11 12 C8.69 12 6.38 12 4 12 C4 13.98 4 15.96 4 18 C6.64 18 9.28 18 12 18 C12 18.99 12 19.98 12 21 C8.04 21 4.08 21 0 21 C0 14.07 0 7.14 0 0 Z " fill="#534741" transform="translate(465,835)"/>
<path d="M0 0 C2.78476716 1.30535961 3.66351365 2.12384453 5 4.9375 C5.30235564 11.05438721 3.76021287 15.20690962 0 19.9375 C-3 18.9375 -3 18.9375 -4.16796875 16.7265625 C-5.04288923 13.79373045 -5.29987456 11.36785602 -5.3125 8.3125 C-5.32925781 7.37148438 -5.34601562 6.43046875 -5.36328125 5.4609375 C-5 2.9375 -5 2.9375 -3.60546875 1.09765625 C-2 -0.0625 -2 -0.0625 0 0 Z " fill="#D9E021" transform="translate(540,486.0625)"/>
<path d="M0 0 C0 1.32 0 2.64 0 4 C-1.98 4 -3.96 4 -6 4 C-6 4.99 -6 5.98 -6 7 C-4.02678947 8.3726682 -2.02456848 9.70427617 0 11 C2 14 2 14 1.875 16.5 C1 19 1 19 -0.5 20.875 C-4.36343673 22.61354653 -7.91842725 21.72386867 -12 21 C-11.34 19.68 -10.68 18.36 -10 17 C-9.21625 17.185625 -8.4325 17.37125 -7.625 17.5625 C-5.02910225 18.25962266 -5.02910225 18.25962266 -3 17 C-3 16.01 -3 15.02 -3 14 C-4.78510506 12.74836056 -4.78510506 12.74836056 -7 11.6875 C-9.20703125 10.39453125 -9.20703125 10.39453125 -11 9 C-11.73443299 5.66166824 -11.59711503 4.11959069 -10 1.125 C-6.74686316 -0.70488947 -3.68609891 -0.18128355 0 0 Z " fill="#534741" transform="translate(713,835)"/>
<path d="M0 0 C0.79921875 0.01804687 1.5984375 0.03609375 2.421875 0.0546875 C3.02515625 0.07789063 3.6284375 0.10109375 4.25 0.125 C4.25 1.445 4.25 2.765 4.25 4.125 C3.1775 4.063125 2.105 4.00125 1 3.9375 C-2.61896403 3.89707787 -2.61896403 3.89707787 -5.1875 5.1875 C-7.07409061 7.16919417 -7.07409061 7.16919417 -7.125 10.625 C-7.01140863 14.23436483 -7.01140863 14.23436483 -4.75 17.125 C-2.55545319 17.70493699 -2.55545319 17.70493699 -0.125 17.8125 C0.69226563 17.87824219 1.50953125 17.94398438 2.3515625 18.01171875 C2.97804688 18.04910156 3.60453125 18.08648438 4.25 18.125 C4.25 19.115 4.25 20.105 4.25 21.125 C1.18570224 22.65714888 -1.3665642 22.35438548 -4.75 22.125 C-7.53901573 20.88543745 -9.19350587 19.84049246 -11.0625 17.4375 C-12.45825988 12.74267132 -12.4259863 8.67976848 -10.5 4.25 C-7.48381503 0.58748968 -4.64845106 -0.13671915 0 0 Z " fill="#534741" transform="translate(728.75,834.875)"/>
<path d="M0 0 C0.66 0 1.32 0 2 0 C4.5376543 4.75810181 4.71841189 9.74051546 4 15 C2.3125 17.625 2.3125 17.625 0 19 C-2.75 19.25 -2.75 19.25 -5 19 C-6.28868981 12.94876088 -6.15033322 9.07009005 -3.10546875 3.62890625 C-2 2 -2 2 0 0 Z " fill="#D9E021" transform="translate(523,450)"/>
<path d="M0 0 C3.63 0 7.26 0 11 0 C11 0.99 11 1.98 11 3 C8.36 3 5.72 3 3 3 C3 4.98 3 6.96 3 9 C5.64 9 8.28 9 11 9 C11 9.99 11 10.98 11 12 C8.36 12 5.72 12 3 12 C3 13.98 3 15.96 3 18 C5.97 18 8.94 18 12 18 C12 18.99 12 19.98 12 21 C8.04 21 4.08 21 0 21 C0 14.07 0 7.14 0 0 Z " fill="#534741" transform="translate(540,835)"/>
<path d="M0 0 C1.32 0 2.64 0 4 0 C4 5.94 4 11.88 4 18 C6.97 18 9.94 18 13 18 C13 18.99 13 19.98 13 21 C8.71 21 4.42 21 0 21 C0 14.07 0 7.14 0 0 Z " fill="#534741" transform="translate(590,835)"/>
<path d="M0 0 C1.32 0 2.64 0 4 0 C4 6.93 4 13.86 4 21 C2.68 21 1.36 21 0 21 C0 14.07 0 7.14 0 0 Z " fill="#534741" transform="translate(694,835)"/>
<path d="M0 0 C1.98 0.495 1.98 0.495 4 1 C3.67 2.32 3.34 3.64 3 5 C1.68 4.67 0.36 4.34 -1 4 C-0.67 2.68 -0.34 1.36 0 0 Z " fill="#534741" transform="translate(659,852)"/>
<path d="M0 0 C1.98 0.495 1.98 0.495 4 1 C3.67 2.32 3.34 3.64 3 5 C1.68 4.67 0.36 4.34 -1 4 C-0.67 2.68 -0.34 1.36 0 0 Z " fill="#534741" transform="translate(525,852)"/>
</svg>
